<?xml version="1.0" encoding="utf-8"?>
<!-- Generator: Adobe Illustrator 24.1.1, SVG Export Plug-In . SVG Version: 6.00 Build 0)  -->
<svg version="1.1" id="Capa_1" xmlns="http://www.w3.org/2000/svg" xmlns:xlink="http://www.w3.org/1999/xlink" x="0px" y="0px"
	 viewBox="0 0 3000 3000" style="enable-background:new 0 0 3000 3000;" xml:space="preserve">
<style type="text/css">
	.st0{fill:#000000;}
	.st1{fill:#FFFFFF;}

	.st1:hover {
	opacity:0;
	transition:all ease 0.5s;
	}
</style>
<g>
	<g>
		<rect x="1740.3" y="1650" transform="matrix(0.8669 -0.4985 0.4985 0.8669 -588.6387 1103.6029)" width="63.7" height="8"/>
	</g>
	<g>
		<rect x="1689.5" y="1637.9" transform="matrix(0.3715 -0.9285 0.9285 0.3715 -454.3845 2612.7046)" width="26" height="8"/>
	</g>
	<g>
		<g>
			<path d="M1826.6,1883l-70.3-29.3l4.3-34.2l18.9-13.2l22.4-55.9l18.9,68.6l-32.3,9.2l-8.8-12.3l-11.6,8.1l-3.1,24.7l62.2,25.9
				l110.3-28.9l170.3-110.1l-106.3,0l-251-16.6l-85.8-38.1v-51l117.4-65.2l83.4-95.4l26.1-92.8l46.5-39.4l5.2,6.1l-44.6,37.9
				l-25.9,92.2l-85.5,97.8l-114.5,63.6v41.1l79.8,35.5l249.4,16.5h133L1940.8,1853l-0.6,0.2L1826.6,1883z M1786.1,1811.1l5.6,7.8
				l19.2-5.5l-10.5-38.1L1786.1,1811.1z"/>
		</g>
		<g>
			<path d="M1862.2,1852.2l-9.7-21.2l23.8-62l9.3,73L1862.2,1852.2z M1861.2,1830.8l5,11l10.7-4.6l-4.5-35.5L1861.2,1830.8z"/>
		</g>
		<g>
			<polygon points="1812,1802 1809.8,1794.3 1841.9,1785.2 1874.4,1721.5 1881.5,1725.2 1847.5,1792 			"/>
		</g>
		<g>
			<polygon points="1931.3,1938.9 1817.7,1938.9 1744.5,1881.1 1734.7,1846.2 1753.8,1820.7 1760.2,1825.5 1743.4,1847.8
				1751.5,1876.4 1820.5,1930.9 1930.5,1930.9 2198.9,1875.1 2402.4,1795.1 2444.6,1654.3 2386.4,1527.1 2393.6,1523.8
				2453.1,1653.7 2408.9,1801.2 2201.1,1882.8 2200.8,1882.9 			"/>
		</g>
		<g>
			<path d="M2091,1571.9l-31.7,55.2l48.3,17.9l53.8-17.9l19.3-66.2L2091,1571.9z M2112.1,1603l-16.6-3.9v-14.7h24.4L2112.1,1603z"/>
		</g>
		<g>
			<polygon points="2192.5,1507.3 2057,1485 1944.3,1335.3 1944.4,1333.8 1962.9,1096.7 1964,1095.7 2154.6,910.7 2207.9,1089.9
				2303.8,1351.6 2303.8,1352.1 2313.1,1452.7 2288.6,1496.1 2281.6,1492.2 2304.9,1451 2295.9,1353.4 2200.3,1092.4 2200.3,1092.3
				2150.7,925.7 1970.6,1100.3 1952.5,1332.9 2061.5,1477.6 2193.8,1499.4 			"/>
		</g>
		<g>
			<polygon points="1887.1,1399.6 1685.4,1200.1 1685.1,1199.2 1616.8,999.8 1616.8,847 1821.6,958.9 2000.5,1064.4 1996.4,1071.3
				1817.6,965.8 1624.8,860.5 1624.8,998.5 1692.4,1195.7 1892.7,1393.9 			"/>
		</g>
		<g>
			<polygon points="2218.1,1468.7 2137.3,1399.2 2137,1398.3 2068,1233.7 2137,1077.6 2144.3,1080.8 2076.7,1233.8 2144,1394.3
				2223.3,1462.6 			"/>
		</g>
		<g>
			<rect x="2188.4" y="1227" transform="matrix(0.9787 -0.2054 0.2054 0.9787 -217.0212 477.7081)" width="8" height="114.2"/>
		</g>
		<g>
			<polygon points="2305,2092.4 2305,1966.5 2227.7,2008.8 2227.7,1942.4 2157.8,1990 2196.2,1877.7 2203.8,1880.3 2173.2,1969.9
				2235.7,1927.3 2235.7,1995.3 2313,1953 2313,2077.3 2528.5,1929.7 2558,1958.5 2547.2,1838.8 2625.2,1893.2 2625.2,1666.8
				2680.6,1651.9 2617.2,1585.2 2649.4,1501.9 2656.9,1504.8 2626.5,1583.4 2695.6,1656.1 2633.2,1673 2633.2,1908.5 2556.7,1855.2
				2567.9,1979.3 2527.6,1940 			"/>
		</g>
		<g>
			<polygon points="2573.1,1370.1 2567.6,1364.3 2622,1313.3 2557.6,1286.2 2582.5,1232.3 2486.3,1232.3 2526.9,1158.9
				2330.8,1223.7 2330.8,1122.3 2237.9,1180.9 2233.6,1174.1 2338.8,1107.8 2338.8,1212.6 2543.8,1144.9 2499.8,1224.3 2595,1224.3
				2568.3,1282.1 2636.4,1310.7 			"/>
		</g>
	</g>
</g>
<g id="onda_1">
	<path class="st0" d="M1523.6,1969c-3.5,0-7-1.2-9.8-3.7c-58.1-50.6-83.1-118.3-72.5-195.8c7.9-57.6,32.6-99.9,33.6-101.7
		c4.2-7.1,13.4-9.5,20.5-5.3c7.1,4.2,9.5,13.4,5.3,20.5c-0.3,0.6-23,39.8-29.9,91.5c-9,67.6,12.1,124.2,62.6,168.2
		c6.2,5.4,6.9,14.9,1.5,21.2C1531.9,1967.3,1527.7,1969,1523.6,1969z"/>
</g>
<g id="onda_2">
	<path class="st0" d="M1345.7,2121.9c-3.5,0-7-1.2-9.8-3.7c-65.1-56.7-109.7-123.8-132.6-199.3c-18.3-60.3-22.8-125.9-13.3-195
		c16-117,65.9-202.6,68-206.2c4.2-7.1,13.4-9.5,20.5-5.3c7.1,4.2,9.5,13.4,5.3,20.5l0,0c-0.5,0.8-49.3,84.8-64.3,196
		c-19.9,147.3,25.9,270.6,136,366.6c6.2,5.4,6.9,14.9,1.5,21.2C1354.1,2120.2,1349.9,2121.9,1345.7,2121.9z"/>
</g>
<g id="onda_3">
	<path class="st0" d="M1120.6,2260.7c-3.5,0-7-1.2-9.8-3.7c-91.8-79.9-154.6-174.4-186.9-280.7c-25.8-84.9-32-177.4-18.7-274.9
		c11.8-86.3,37.2-160.7,56.4-207.9c20.9-51.3,38.8-81.9,39.6-83.2c4.2-7.1,13.4-9.5,20.5-5.3c7.1,4.2,9.5,13.4,5.3,20.5
		c-0.9,1.5-70.7,121.6-92.3,280.9c-28.8,212.1,37.1,389.7,195.7,527.8c6.2,5.4,6.9,14.9,1.5,21.2
		C1128.9,2258.9,1124.8,2260.7,1120.6,2260.7z"/>
</g>
<polygon id="Mariposa" class="st0" points="559.2,1934 629.2,1783.7 735,1745.4 711.5,1894.3 664.6,1959.5 594.6,1966.6 664.6,2019
	637.8,2087.1 572.6,2087.1 542.7,2011.9 536.6,2011.9 506.7,2087.1 441.5,2087.1 414.7,2019 484.7,1966.6 414.7,1959.5
	367.8,1894.3 344.3,1745.4 450.1,1783.7 520.1,1934 "/>
<g>
	<g>
		<path class="st1" d="M1616.4,2386.8c-270.6,0-541.2,0-811.9,0c0-381.9,0-763.8,0-1145.8c270.7,0,541.4,0,812.2,0
			c0,0,0.1,0.1,0.1,0.2c0,0.3,0,0.6,0,1c0,381.3,0,762.6,0,1143.8c0,0.1-0.1,0.3-0.1,0.4C1616.6,2386.6,1616.5,2386.7,1616.4,2386.8
			z"/>
	</g>
</g>
</svg>
